<?xml version="1.0" encoding="UTF-8"?>
<svg xmlns="http://www.w3.org/2000/svg">
	<symbol id="telegram" viewBox="0 0 512 512" fill="currentColor">
		<path
			d="M477,43.86,13.32,223.29a5.86,5.86,0,0,0-.8.38c-3.76,2.13-30,18.18,7,32.57l.38.14,110.41,35.67a6.08,6.08,0,0,0,5.09-.62L409.25,120.57a6,6,0,0,1,2.2-.83c3.81-.63,14.78-1.81,7.84,7-7.85,10-194.9,177.62-215.66,196.21a6.3,6.3,0,0,0-2.07,4.17l-9.06,108a7.08,7.08,0,0,0,2.83,5.67,6.88,6.88,0,0,0,8.17-.62l65.6-58.63a6.09,6.09,0,0,1,7.63-.39l114.45,83.1.37.25c2.77,1.71,32.69,19.12,41.33-19.76l79-375.65c.11-1.19,1.18-14.27-8.17-22-9.82-8.08-23.72-4-25.81-3.56A6,6,0,0,0,477,43.86Z" />
	</symbol>

	<symbol id="email" viewBox="0 0 1920 1920" fill="currentColor">
		<path
			d="M1920 428.266v1189.54l-464.16-580.146-88.203 70.585 468.679 585.904H83.684l468.679-585.904-88.202-70.585L0 1617.805V428.265l959.944 832.441L1920 428.266ZM1919.932 226v52.627l-959.943 832.44L.045 278.628V226h1919.887Z"
			fill-rule="evenodd" />
	</symbol>

	<symbol id="github" viewBox="0 0 16 16" fill="currentColor">
		<path
			d="M8 0C3.58 0 0 3.58 0 8c0 3.54 2.29 6.53 5.47 7.59.4.07.55-.17.55-.38 0-.19-.01-.82-.01-1.49-2.01.37-2.53-.49-2.69-.94-.09-.23-.48-.94-.82-1.13-.28-.15-.68-.52-.01-.53.63-.01 1.08.58 1.23.82.72 1.21 1.87.87 2.33.66.07-.52.28-.87.51-1.07-1.78-.2-3.64-.89-3.64-3.95 0-.87.31-1.59.82-2.15-.08-.2-.36-1.02.08-2.12 0 0 .67-.21 2.2.82.64-.18 1.32-.27 2-.27.68 0 1.36.09 2 .27 1.53-1.04 2.2-.82 2.2-.82.44 1.1.16 1.92.08 2.12.51.56.82 1.27.82 2.15 0 3.07-1.87 3.75-3.65 3.95.29.25.54.73.54 1.48 0 1.07-.01 1.93-.01 2.2 0 .21.15.46.55.38A8.013 8.013 0 0016 8c0-4.42-3.58-8-8-8z">
		</path>
	</symbol>

	<symbol id="linkedin" viewBox="0 0 24 24" fill="currentColor">
		<path
			d="M20.5 2h-17A1.5 1.5 0 002 3.5v17A1.5 1.5 0 003.5 22h17a1.5 1.5 0 001.5-1.5v-17A1.5 1.5 0 0020.5 2zM8 19H5v-9h3zM6.5 8.25A1.75 1.75 0 118.3 6.5a1.78 1.78 0 01-1.8 1.75zM19 19h-3v-4.74c0-1.42-.6-1.93-1.38-1.93A1.74 1.74 0 0013 14.19a.66.66 0 000 .14V19h-3v-9h2.9v1.3a3.11 3.11 0 012.7-1.4c1.55 0 3.36.86 3.36 3.66z">
		</path>
	</symbol>

	<symbol id="arrow-up-right" viewBox="0 0 20 20" fill="currentColor">
		<path fill-rule="evenodd"
			d="M5.22 14.78a.75.75 0 001.06 0l7.22-7.22v5.69a.75.75 0 001.5 0v-7.5a.75.75 0 00-.75-.75h-7.5a.75.75 0 000 1.5h5.69l-7.22 7.22a.75.75 0 000 1.06z"
			clip-rule="evenodd"></path>
	</symbol>

	<symbol id="arrow-right" viewBox="0 0 20 20" fill="currentColor">
		<path fill-rule="evenodd"
			d="M3 10a.75.75 0 01.75-.75h10.638L10.23 5.29a.75.75 0 111.04-1.08l5.5 5.25a.75.75 0 010 1.08l-5.5 5.25a.75.75 0 11-1.04-1.08l4.158-3.96H3.75A.75.75 0 013 10z"
			clip-rule="evenodd"></path>
	</symbol>

	<symbol id="github-link" viewBox="0 0 92 92" fill="currentColor">
		<path
			d="M89.422 42.371 49.629 2.582a5.868 5.868 0 0 0-8.3 0l-8.263 8.262 10.48 10.484a6.965 6.965 0 0 1 7.173 1.668 6.98 6.98 0 0 1 1.656 7.215l10.102 10.105a6.963 6.963 0 0 1 7.214 1.657 6.976 6.976 0 0 1 0 9.875 6.98 6.98 0 0 1-9.879 0 6.987 6.987 0 0 1-1.519-7.594l-9.422-9.422v24.793a6.979 6.979 0 0 1 1.848 1.32 6.988 6.988 0 0 1 0 9.88c-2.73 2.726-7.153 2.726-9.875 0a6.98 6.98 0 0 1 0-9.88 6.893 6.893 0 0 1 2.285-1.523V34.398a6.893 6.893 0 0 1-2.285-1.523 6.988 6.988 0 0 1-1.508-7.637L29.004 14.902 1.719 42.187a5.868 5.868 0 0 0 0 8.301l39.793 39.793a5.868 5.868 0 0 0 8.3 0l39.61-39.605a5.873 5.873 0 0 0 0-8.305" />
	</symbol>

	<symbol id="ru" viewBox="0 0 9 6">
		<rect fill="#fff" width="9" height="3" />
		<rect fill="#d52b1e" y="3" width="9" height="3" />
		<rect fill="#0039a6" y="2" width="9" height="2" />
	</symbol>

	<symbol id="us" viewBox="0 0 640 480">
		<g fill-rule="evenodd">
			<g stroke-width="1pt">
				<path fill="#bd3d44"
					d="M0 0h972.8v39.4H0zm0 78.8h972.8v39.4H0zm0 78.7h972.8V197H0zm0 78.8h972.8v39.4H0zm0 78.8h972.8v39.4H0zm0 78.7h972.8v39.4H0zm0 78.8h972.8V512H0z"
					transform="scale(.9375)" />
				<path fill="#fff"
					d="M0 39.4h972.8v39.4H0zm0 78.8h972.8v39.3H0zm0 78.7h972.8v39.4H0zm0 78.8h972.8v39.4H0zm0 78.8h972.8v39.4H0zm0 78.7h972.8v39.4H0z"
					transform="scale(.9375)" />
			</g>
			<path fill="#192f5d" d="M0 0h389.1v275.7H0z" transform="scale(.9375)" />
			<path fill="#fff"
				d="M32.4 11.8L36 22.7h11.4l-9.2 6.7 3.5 11-9.3-6.8-9.2 6.7 3.5-10.9-9.3-6.7H29zm64.9 0l3.5 10.9h11.5l-9.3 6.7 3.5 11-9.2-6.8-9.3 6.7 3.5-10.9-9.2-6.7h11.4zm64.8 0l3.6 10.9H177l-9.2 6.7 3.5 11-9.3-6.8-9.2 6.7 3.5-10.9-9.3-6.7h11.5zm64.9 0l3.5 10.9H242l-9.3 6.7 3.6 11-9.3-6.8-9.3 6.7 3.6-10.9-9.3-6.7h11.4zm64.8 0l3.6 10.9h11.4l-9.2 6.7 3.5 11-9.3-6.8-9.2 6.7 3.5-10.9-9.2-6.7h11.4zm64.9 0l3.5 10.9h11.5l-9.3 6.7 3.6 11-9.3-6.8-9.3 6.7 3.6-10.9-9.3-6.7h11.5zM64.9 39.4l3.5 10.9h11.5L70.6 57 74 67.9l-9-6.7-9.3 6.7L59 57l-9-6.7h11.4zm64.8 0l3.6 10.9h11.4l-9.3 6.7 3.6 10.9-9.3-6.7-9.3 6.7L124 57l-9.3-6.7h11.5zm64.9 0l3.5 10.9h11.5l-9.3 6.7 3.5 10.9-9.2-6.7-9.3 6.7 3.5-10.9-9.2-6.7H191zm64.8 0l3.6 10.9h11.4l-9.3 6.7 3.6 10.9-9.3-6.7-9.2 6.7 3.5-10.9-9.3-6.7H256zm64.9 0l3.5 10.9h11.5L330 57l3.5 10.9-9.2-6.7-9.3 6.7 3.5-10.9-9.2-6.7h11.4zM32.4 66.9L36 78h11.4l-9.2 6.7 3.5 10.9-9.3-6.8-9.2 6.8 3.5-11-9.3-6.7H29zm64.9 0l3.5 11h11.5l-9.3 6.7 3.5 10.9-9.2-6.8-9.3 6.8 3.5-11-9.2-6.7h11.4zm64.8 0l3.6 11H177l-9.2 6.7 3.5 10.9-9.3-6.8-9.2 6.8 3.5-11-9.3-6.7h11.5zm64.9 0l3.5 11H242l-9.3 6.7 3.6 10.9-9.3-6.8-9.3 6.8 3.6-11-9.3-6.7h11.4zm64.8 0l3.6 11h11.4l-9.2 6.7 3.5 10.9-9.3-6.8-9.2 6.8 3.5-11-9.2-6.7h11.4zm64.9 0l3.5 11h11.5l-9.3 6.7 3.6 10.9-9.3-6.8-9.3 6.8 3.6-11-9.3-6.7h11.5zM64.9 94.5l3.5 10.9h11.5l-9.3 6.7 3.5 11-9.2-6.8-9.3 6.7 3.5-10.9-9.2-6.7h11.4zm64.8 0l3.6 10.9h11.4l-9.3 6.7 3.6 11-9.3-6.8-9.3 6.7 3.6-10.9-9.3-6.7h11.5zm64.9 0l3.5 10.9h11.5l-9.3 6.7 3.5 11-9.2-6.8-9.3 6.7 3.5-10.9-9.2-6.7H191zm64.8 0l3.6 10.9h11.4l-9.2 6.7 3.5 11-9.3-6.8-9.2 6.7 3.5-10.9-9.3-6.7H256zm64.9 0l3.5 10.9h11.5l-9.3 6.7 3.5 11-9.2-6.8-9.3 6.7 3.5-10.9-9.2-6.7h11.4zM32.4 122.1L36 133h11.4l-9.2 6.7 3.5 11-9.3-6.8-9.2 6.7 3.5-10.9-9.3-6.7H29zm64.9 0l3.5 10.9h11.5l-9.3 6.7 3.5 10.9-9.2-6.7-9.3 6.7 3.5-10.9-9.2-6.7h11.4zm64.8 0l3.6 10.9H177l-9.2 6.7 3.5 11-9.3-6.8-9.2 6.7 3.5-10.9-9.3-6.7h11.5zm64.9 0l3.5 10.9H242l-9.3 6.7 3.6 11-9.3-6.8-9.3 6.7 3.6-10.9-9.3-6.7h11.4zm64.8 0l3.6 10.9h11.4l-9.2 6.7 3.5 11-9.3-6.8-9.2 6.7 3.5-10.9-9.2-6.7h11.4zm64.9 0l3.5 10.9h11.5l-9.3 6.7 3.6 11-9.3-6.8-9.3 6.7 3.6-10.9-9.3-6.7h11.5zM64.9 149.7l3.5 10.9h11.5l-9.3 6.7 3.5 10.9-9.2-6.8-9.3 6.8 3.5-11-9.2-6.7h11.4zm64.8 0l3.6 10.9h11.4l-9.3 6.7 3.6 10.9-9.3-6.8-9.3 6.8 3.6-11-9.3-6.7h11.5zm64.9 0l3.5 10.9h11.5l-9.3 6.7 3.5 10.9-9.2-6.8-9.3 6.8 3.5-11-9.2-6.7H191zm64.8 0l3.6 10.9h11.4l-9.2 6.7 3.5 10.9-9.3-6.8-9.2 6.8 3.5-11-9.3-6.7H256zm64.9 0l3.5 10.9h11.5l-9.3 6.7 3.5 10.9-9.2-6.8-9.3 6.8 3.5-11-9.2-6.7h11.4zM32.4 177.2l3.6 11h11.4l-9.2 6.7 3.5 10.8-9.3-6.7-9.2 6.7 3.5-10.9-9.3-6.7H29zm64.9 0l3.5 11h11.5l-9.3 6.7 3.6 10.8-9.3-6.7-9.3 6.7 3.6-10.9-9.3-6.7h11.4zm64.8 0l3.6 11H177l-9.2 6.7 3.5 10.8-9.3-6.7-9.2 6.7 3.5-10.9-9.3-6.7h11.5zm64.9 0l3.5 11H242l-9.3 6.7 3.6 10.8-9.3-6.7-9.3 6.7 3.6-10.9-9.3-6.7h11.4zm64.8 0l3.6 11h11.4l-9.2 6.7 3.5 10.8-9.3-6.7-9.2 6.7 3.5-10.9-9.2-6.7h11.4zm64.9 0l3.5 11h11.5l-9.3 6.7 3.6 10.8-9.3-6.7-9.3 6.7 3.6-10.9-9.3-6.7h11.5zM64.9 204.8l3.5 10.9h11.5l-9.3 6.7 3.5 11-9.2-6.8-9.3 6.7 3.5-10.9-9.2-6.7h11.4zm64.8 0l3.6 10.9h11.4l-9.3 6.7 3.6 11-9.3-6.8-9.3 6.7 3.6-10.9-9.3-6.7h11.5zm64.9 0l3.5 10.9h11.5l-9.3 6.7 3.5 11-9.2-6.8-9.3 6.7 3.5-10.9-9.2-6.7H191zm64.8 0l3.6 10.9h11.4l-9.2 6.7 3.5 11-9.3-6.8-9.2 6.7 3.5-10.9-9.3-6.7H256zm64.9 0l3.5 10.9h11.5l-9.3 6.7 3.5 11-9.2-6.8-9.3 6.7 3.5-10.9-9.2-6.7h11.4zM32.4 232.4l3.6 10.9h11.4l-9.2 6.7 3.5 10.9-9.3-6.7-9.2 6.7 3.5-11-9.3-6.7H29zm64.9 0l3.5 10.9h11.5L103 250l3.6 10.9-9.3-6.7-9.3 6.7 3.6-11-9.3-6.7h11.4zm64.8 0l3.6 10.9H177l-9 6.7 3.5 10.9-9.3-6.7-9.2 6.7 3.5-11-9.3-6.7h11.5zm64.9 0l3.5 10.9H242l-9.3 6.7 3.6 10.9-9.3-6.7-9.3 6.7 3.6-11-9.3-6.7h11.4zm64.8 0l3.6 10.9h11.4l-9.2 6.7 3.5 10.9-9.3-6.7-9.2 6.7 3.5-11-9.2-6.7h11.4zm64.9 0l3.5 10.9h11.5l-9.3 6.7 3.6 10.9-9.3-6.7-9.3 6.7 3.6-11-9.3-6.7h11.5z"
				transform="scale(.9375)" />
		</g>
	</symbol>

	<symbol id="fi" viewBox="0 0 18 11">
		<rect width="18" height="11" fill="#fff" />
		<path d="M0,5.5h18M6.5,0v11" stroke="#002F6C" stroke-width="3" />
	</symbol>
</svg>